<svg width="105" height="91" viewBox="0 0 105 91" fill="none" xmlns="http://www.w3.org/2000/svg">
    <path d="M85.122 40.6924C84.3076 37.9889 81.8296 36.0078 78.8612 36.0078C78.824 36.0078 78.789 36.0187 78.7518 36.0187C78.222 32.3061 75.0588 29.4406 71.1995 29.4406C68.8397 29.4406 66.7557 30.5307 65.3503 32.2075C64.4528 31.8398 63.4742 31.6296 62.4432 31.6296C61.7011 31.6296 60.9962 31.7697 60.3176 31.9667C58.8531 29.1757 55.9614 27.2515 52.5924 27.2515C49.3131 27.2515 46.4871 29.0772 44.9875 31.7457C44.6132 31.68 44.2301 31.6296 43.8361 31.6296C43.3041 31.6296 42.7919 31.7106 42.2972 31.831C41.0932 30.3819 39.3003 29.4406 37.2689 29.4406C35.8985 29.4406 34.6289 29.8609 33.5759 30.5789C32.4157 29.8696 31.0672 29.4406 29.6071 29.4406C25.3757 29.4406 21.9454 32.8708 21.9454 37.1023C21.9454 37.5117 22.0045 37.9035 22.0658 38.2954C18.3006 38.7791 15.3782 41.9599 15.3782 45.8586C15.3782 50.0901 18.8084 53.5203 23.0399 53.5203C23.4143 53.5203 23.7733 53.4612 24.1345 53.4109V53.5203H81.0503V53.1176C81.7377 53.3627 82.4666 53.5203 83.2394 53.5203C86.8667 53.5203 89.8066 50.5804 89.8066 46.9531C89.8066 43.9847 87.8255 41.5067 85.122 40.6924Z" fill="#EDEDED"/>
    <path d="M69.4526 36.3429L88.4187 9.73909L91.9956 12.2631L73.5089 38.197H69.9955C69.9013 37.5447 69.6999 36.9317 69.4526 36.3429ZM66.7118 32.9301L81.0503 5.20333L77.1712 3.17188L62.4541 31.632C64.0302 31.6342 65.4947 32.1114 66.7118 32.9301Z" fill="#FF5634"/>
    <path d="M70.3348 43.7901C70.8733 42.7043 72.1889 42.2687 73.2725 42.8072C74.3539 43.3457 74.7917 44.6635 74.251 45.7405L72.294 49.6546C71.7555 50.7404 70.4399 51.176 69.3563 50.6375C68.2749 50.099 67.8392 48.7812 68.3778 47.7041L70.3348 43.7901ZM43.5931 43.2384C42.7503 44.1053 42.7678 45.491 43.6325 46.3338C44.5037 47.1766 45.8872 47.1591 46.73 46.2922L49.7838 43.1531C50.6288 42.284 50.6069 40.9005 49.74 40.0577C48.8731 39.2105 47.4853 39.2324 46.6447 40.0993L43.5931 43.2384ZM31.9013 36.1524C30.8877 35.4935 29.5349 35.7671 28.8716 36.7851C28.2083 37.7942 28.4907 39.1536 29.5042 39.8125L33.1644 42.2161C34.1779 42.8838 35.5329 42.5927 36.1962 41.5835C36.8617 40.5743 36.5771 39.2149 35.5636 38.556L31.9013 36.1524ZM58.1701 36.3669C57.1566 35.7037 55.8037 35.9817 55.1404 36.9952C54.4772 38.0087 54.7595 39.3638 55.7731 40.0271L59.4332 42.4263C60.4467 43.094 61.8018 42.8072 62.4651 41.798C63.1305 40.7845 62.846 39.4251 61.8324 38.7662L58.1701 36.3669Z" fill="#CACACA"/>
    <path d="M11 46.9531H94.1847C94.1847 46.9531 94.038 81.9783 52.5923 81.9783C11.1467 81.9783 11 46.9531 11 46.9531Z" fill="#FDB52A"/>
    <path d="M37.2688 79.7896H67.9158V86.3568H37.2688V79.7896Z" fill="#D68D00"/>
</svg>