<svg width="105" height="91" viewBox="0 0 105 91" fill="none" xmlns="http://www.w3.org/2000/svg">
    <g clip-path="url(#clip0_2_282)">
        <path d="M38.0297 90.246C44.248 90.246 49.289 85.2051 49.289 78.9868C49.289 72.7684 44.248 67.7275 38.0297 67.7275C31.8113 67.7275 26.7704 72.7684 26.7704 78.9868C26.7704 85.2051 31.8113 90.246 38.0297 90.246Z" fill="#3F3F3F"/>
        <path d="M11.0075 58.7205H31.2742C32.5172 58.7205 33.526 57.7117 33.526 56.4687C33.526 55.2257 32.5172 54.2168 31.2742 54.2168H11.0075C9.76444 54.2168 8.75562 55.2257 8.75562 56.4687C8.75562 57.7117 9.76444 58.7205 11.0075 58.7205Z" fill="#FF5634"/>
        <path d="M92.0744 90.246C98.2927 90.246 103.334 85.2051 103.334 78.9868C103.334 72.7684 98.2927 67.7275 92.0744 67.7275C85.856 67.7275 80.8151 72.7684 80.8151 78.9868C80.8151 85.2051 85.856 90.246 92.0744 90.246Z" fill="#3F3F3F"/>
        <path d="M92.0743 83.4909C94.5616 83.4909 96.578 81.4745 96.578 78.9871C96.578 76.4998 94.5616 74.4834 92.0743 74.4834C89.5869 74.4834 87.5706 76.4998 87.5706 78.9871C87.5706 81.4745 89.5869 83.4909 92.0743 83.4909Z" fill="white"/>
        <path d="M38.0297 83.4909C40.517 83.4909 42.5334 81.4745 42.5334 78.9871C42.5334 76.4998 40.517 74.4834 38.0297 74.4834C35.5424 74.4834 33.526 76.4998 33.526 78.9871C33.526 81.4745 35.5424 83.4909 38.0297 83.4909Z" fill="white"/>
        <path d="M92.0743 81.2382C91.1736 81.2382 90.498 80.7878 90.0476 79.8871L81.0402 61.8722C80.5898 60.7463 81.0402 59.3951 81.941 58.9448C83.0669 58.4944 84.418 58.9448 84.8684 59.8455L93.8758 77.8604C94.3262 78.9863 93.8758 80.3374 92.9751 80.7878C92.7499 81.2382 92.5247 81.2382 92.0743 81.2382Z" fill="#E13F1F"/>
        <path d="M44.7853 78.9865H72.0258C74.3926 78.9865 76.2399 77.0382 76.7649 74.7303C78.5648 66.818 85.3978 63.5474 91.3987 62.7731C94.5513 62.5479 94.3261 58.7198 94.3261 58.7198C89.8224 42.9568 78.5631 31.6975 74.0594 27.1938H69.5557C76.1244 39.8942 78.061 72.8569 60.5483 72.2309H44.7853V78.9865Z" fill="#E13F1F"/>
        <path d="M56.0446 51.9644H33.526C29.0223 56.4681 24.5186 65.4755 24.5186 72.2311C29.0223 74.483 44.7853 72.2311 44.7853 72.2311H60.5483C51.8223 72.2311 49.289 59.7851 56.0446 51.9644Z" fill="#E13F1F"/>
        <path d="M78.5632 20.438V29.4454C81.0403 29.4454 83.0669 27.4188 83.0669 24.9417C83.0669 22.4647 81.0403 20.438 78.5632 20.438Z" fill="#FFC107"/>
        <path d="M61.1113 53.7656C61.1113 54.3466 60.7983 54.878 60.2781 55.1347C58.7063 55.9071 54.8399 57.3685 48.0505 57.3685C38.8179 57.3685 31.8372 54.216 31.8372 54.216V53.09C31.8372 49.9802 34.357 47.4604 37.4668 47.4604H54.8061C58.274 47.4604 61.1113 50.2977 61.1113 53.7656Z" fill="#3F3F3F"/>
        <path d="M69.5738 28.0425C72.3999 28.9545 75.4061 29.4004 78.5632 29.4454V20.438C75.4264 20.4808 72.3864 20.9852 69.4387 21.9265C68.1439 22.3386 67.304 23.5974 67.304 24.9552C67.304 26.3694 68.2295 27.6102 69.5738 28.0425Z" fill="#FF5634"/>
        <path d="M38.0298 63.2236C30.5132 63.2236 22.7353 68.1219 19.201 75.1379C18.2603 77.0054 19.7886 78.9866 21.8796 78.9866H50.5787C52.3538 78.9866 53.8272 77.5334 53.481 75.7924C52.0394 68.5423 45.7599 63.2236 38.0298 63.2236Z" fill="#FF5634"/>
        <path d="M56.0446 29.4461H71.8076C73.0506 29.4461 74.0594 28.4373 74.0594 27.1943C74.0594 25.9512 73.0506 24.9424 71.8076 24.9424H56.0446C54.8016 24.9424 53.7927 25.9512 53.7927 27.1943C53.7927 28.4373 54.8016 29.4461 56.0446 29.4461Z" fill="#3F3F3F"/>
        <path d="M31.2741 29.4458H2V51.0022C2 52.7773 3.439 54.2163 5.21409 54.2163H28.06C29.8351 54.2163 31.2741 52.7773 31.2741 51.0022V29.4458Z" fill="#FDB52A"/>
        <path d="M29.1314 27.1938H4.14273C2.95933 27.1938 2 28.1531 2 29.3365V33.9493H31.2741V29.3365C31.2741 28.1531 30.3148 27.1938 29.1314 27.1938Z" fill="#D99002"/>
        <path d="M35.7778 2.42334H6.50366V23.9797C6.50366 25.7548 7.94266 27.1938 9.71775 27.1938H32.5637C34.3388 27.1938 35.7778 25.7548 35.7778 23.9797V2.42334Z" fill="#FDB52A"/>
        <path d="M33.6351 0.171875H8.64639C7.463 0.171875 6.50366 1.13121 6.50366 2.3146V6.92744H35.7778V2.3146C35.7778 1.13121 34.8185 0.171875 33.6351 0.171875Z" fill="#D99002"/>
    </g>
    <defs>
        <clipPath id="clip0_2_282">
            <rect width="105" height="90" fill="white" transform="translate(0 0.171875)"/>
        </clipPath>
    </defs>
</svg>