<svg width="105" height="91" viewBox="0 0 105 91" fill="none" xmlns="http://www.w3.org/2000/svg">
    <g clip-path="url(#clip0_2_305)">
        <path d="M29.1596 19.7872C26.0327 19.7872 23.5058 18.7764 21.4773 17.9618C18.2396 16.6649 16.832 16.2195 14.4481 18.1257C13.4489 18.9241 12.002 18.758 11.2035 17.7657C10.4073 16.771 10.5712 15.3172 11.5635 14.5234C16.1466 10.8564 19.8896 12.3564 23.192 13.6787C25.0266 14.4126 26.9212 15.1718 29.1596 15.1718C30.4358 15.1718 31.4673 16.2057 31.4673 17.4795C31.4673 18.7534 30.4358 19.7872 29.1596 19.7872Z" fill="#E13F1F"/>
        <path d="M33.7751 23.2484H24.5443V16.3253C24.5443 15.0514 25.5782 14.0176 26.852 14.0176H31.4674C32.7412 14.0176 33.7751 15.0514 33.7751 16.3253V23.2484Z" fill="#FF5634"/>
        <path d="M38.3905 30.1722H19.929V23.2491C19.929 21.9753 20.9628 20.9414 22.2366 20.9414H36.0828C37.3567 20.9414 38.3905 21.9753 38.3905 23.2491V30.1722Z" fill="#E13F1F"/>
        <path d="M45.3136 41.7104H13.0059V32.4797C13.0059 29.9297 15.0712 27.8643 17.6212 27.8643H40.6982C43.2482 27.8643 45.3136 29.9297 45.3136 32.4797V41.7104Z" fill="#FF5634"/>
        <path d="M68.8059 31.326C68.552 30.6798 68.2751 30.0337 67.9751 29.4106L67.2136 27.8644L66.6597 26.7337L64.952 23.249H44.1367L42.429 26.7337L41.8751 27.8644L41.1136 29.4106C40.8136 30.0337 40.5367 30.6798 40.2828 31.326C39.0367 34.4644 38.3905 37.8567 38.3905 41.249V42.8644H70.6982V41.249C70.6982 37.8567 70.052 34.4644 68.8059 31.326Z" fill="#F9F9F9"/>
        <path d="M67.2136 27.8642H41.8751L42.429 26.7334L44.1367 23.2488L48.0828 15.1719H61.0059L64.952 23.2488L66.6597 26.7334L67.2136 27.8642Z" fill="#CACACA"/>
        <path d="M48.7751 16.3254H60.3136C62.2244 16.3254 63.7751 14.7747 63.7751 12.8639C63.7751 10.9531 62.2244 9.40234 60.3136 9.40234H48.7751C46.8644 9.40234 45.3136 10.9531 45.3136 12.8639C45.3136 14.7747 46.8644 16.3254 48.7751 16.3254Z" fill="#656565"/>
        <path d="M91.4675 41.7104H70.6982V10.5565C70.6982 4.82187 75.3482 0.171875 81.0829 0.171875C86.8175 0.171875 91.4675 4.82187 91.4675 10.5565V41.7104Z" fill="#FFCF7B"/>
        <path d="M83.1528 17.2418C80.9535 19.441 78.1197 20.4633 76.4512 20.8995C75.7104 21.1002 75.1451 20.5325 75.3458 19.7941C75.3804 19.6764 75.4151 19.5449 75.4497 19.4133C75.9343 17.7264 76.9635 15.1325 79.0035 13.0925C81.0435 11.0525 83.6235 10.0233 85.3174 9.5456C85.4558 9.50406 85.5874 9.46945 85.7051 9.43483C86.4458 9.23406 87.0112 9.80176 86.8104 10.5402C86.3766 12.2087 85.352 15.0425 83.1528 17.2418Z" fill="#E38101"/>
        <path d="M83.1528 33.396C80.9535 35.5952 78.1197 36.6175 76.4512 37.0537C75.7104 37.2544 75.1451 36.6867 75.3458 35.9483C75.3804 35.8306 75.4151 35.699 75.4497 35.5675C75.9343 33.8806 76.9635 31.2867 79.0035 29.2467C81.0435 27.2067 83.6235 26.1775 85.3174 25.6998C85.4558 25.6583 85.5874 25.6237 85.7051 25.5891C86.4458 25.3883 87.0112 25.956 86.8104 26.6944C86.3766 28.3629 85.352 31.1967 83.1528 33.396Z" fill="#E38101"/>
        <path d="M97.4905 42.31L96.5444 48.633L96.4059 49.5561L90.9828 85.8561C90.5905 88.3484 88.4674 90.1715 85.9521 90.1715H18.5213C16.0059 90.1715 13.8828 88.3484 13.4905 85.8561L8.11358 49.5561L7.97511 48.633L7.02896 42.31C6.79819 40.7638 7.97511 39.4023 9.54434 39.4023H94.9751C96.5444 39.4023 97.7213 40.7638 97.4905 42.31Z" fill="#4CAF50"/>
        <path d="M97.4905 42.31L96.5444 48.633H7.97511L7.02896 42.31C6.79819 40.7638 7.97511 39.4023 9.54434 39.4023H94.9751C96.5444 39.4023 97.7213 40.7638 97.4905 42.31Z" fill="#53D158"/>
        <path d="M44.1598 85.5567C42.249 85.5567 40.6982 84.006 40.6982 82.0952V56.7106C40.6982 54.7998 42.249 53.249 44.1598 53.249C46.0706 53.249 47.6213 54.7998 47.6213 56.7106V82.0952C47.6213 84.006 46.0706 85.5567 44.1598 85.5567Z" fill="black" fill-opacity="0.18"/>
        <path d="M28.0059 85.5567C26.0951 85.5567 24.5443 84.006 24.5443 82.0952V56.7106C24.5443 54.7998 26.0951 53.249 28.0059 53.249C29.9166 53.249 31.4674 54.7998 31.4674 56.7106V82.0952C31.4674 84.006 29.9166 85.5567 28.0059 85.5567Z" fill="black" fill-opacity="0.18"/>
        <path d="M60.3136 85.5567C58.4028 85.5567 56.8521 84.006 56.8521 82.0952V56.7106C56.8521 54.7998 58.4028 53.249 60.3136 53.249C62.2244 53.249 63.7751 54.7998 63.7751 56.7106V82.0952C63.7751 84.006 62.2244 85.5567 60.3136 85.5567Z" fill="black" fill-opacity="0.18"/>
        <path d="M76.4674 85.5567C74.5566 85.5567 73.0059 84.006 73.0059 82.0952V56.7106C73.0059 54.7998 74.5566 53.249 76.4674 53.249C78.3782 53.249 79.9289 54.7998 79.9289 56.7106V82.0952C79.9289 84.006 78.3782 85.5567 76.4674 85.5567Z" fill="black" fill-opacity="0.18"/>
    </g>
    <defs>
        <clipPath id="clip0_2_305">
            <rect width="105" height="90" fill="white" transform="translate(0 0.171875)"/>
        </clipPath>
    </defs>
</svg>