<svg width="105" height="91" viewBox="0 0 105 91" fill="none" xmlns="http://www.w3.org/2000/svg">
    <path d="M80.1915 44.1847C80.1915 44.1847 84.9218 35.7314 85.3584 30.9612C85.4959 29.465 84.96 27.9915 83.7109 27.1582L82.6723 26.4658C81.3849 25.6081 80.743 24.058 81.0474 22.541L81.8564 19.8288C82.2704 17.762 80.9291 15.7509 78.8624 15.3386L75.9553 15.0846C74.5096 14.7958 73.3597 13.6981 73.0013 12.268C72.4098 9.89853 69.7759 8.6877 67.5925 9.78023L67.349 9.90201C65.8789 10.6362 63.9566 10.0951 62.7944 8.933L62.6326 8.77121C60.9904 7.12718 58.2747 7.32029 56.8812 9.1783C56.8812 9.1783 54.0976 12.87 52.3579 12.87C48.6158 20.2498 50.6165 45.9244 50.6165 45.9244L78.3422 48.4261L80.1915 44.1847Z" fill="#689F38"/>
    <path d="M76.7138 61.5822V44.1851C76.7138 37.3515 71.4947 38.0248 71.4947 23.3086C71.4947 23.3086 64.9221 23.3086 62.7961 23.3086C62.7961 38.0248 57.577 37.3515 57.577 44.1851V61.5822H76.7138Z" fill="#FAFAFA"/>
    <path d="M71.4946 26.7875H62.7961C61.8393 26.7875 61.0564 26.0046 61.0564 25.0478V23.3081C61.0564 22.3513 61.8393 21.5684 62.7961 21.5684H71.4946C72.4515 21.5684 73.2343 22.3513 73.2343 23.3081V25.0478C73.2343 26.0046 72.4515 26.7875 71.4946 26.7875Z" fill="#FDB52A"/>
    <path d="M73.2345 44.1848C73.2345 42.3199 72.7247 41.4065 71.7992 39.7469C70.9694 38.2594 69.9847 36.464 69.2262 33.7466H65.0665C64.308 36.464 63.3234 38.2594 62.4935 39.7469C61.5663 41.4065 61.0565 42.3199 61.0565 44.1848V58.1025H73.2345V44.1848Z" fill="#FAFAFA"/>
    <path d="M40.1818 16.3498C40.274 9.33359 43.2715 4.17188 47.1406 4.17188C51.0097 4.17188 54.0994 9.33359 54.0994 16.3498C54.0994 21.1862 51.0097 25.0484 47.1406 25.0484C43.2715 25.0484 40.1174 21.1845 40.1818 16.3498Z" fill="#FFD54F"/>
    <path d="M40.1816 16.3496H54.0993V47.6643H40.1816V16.3496Z" fill="#FFD54F"/>
    <path d="M41.9214 26.7928C41.9214 26.7928 43.4436 22.9863 46.2324 20.429C49.0211 17.8716 52.3596 18.0943 52.3596 18.0943C52.3596 18.0943 50.773 21.7946 47.9843 24.3503C45.1955 26.9059 41.9214 26.7928 41.9214 26.7928ZM41.9214 38.969C41.9214 38.969 43.4436 35.1625 46.2324 32.6052C49.0211 30.0495 52.3596 30.2705 52.3596 30.2705C52.3596 30.2705 50.773 33.9708 47.9843 36.5265C45.1955 39.0838 41.9214 38.969 41.9214 38.969Z" fill="#FFB300"/>
    <path d="M42.4121 51.9058L36.7667 76.5731C36.3457 78.7199 37.9915 80.7188 40.1818 80.7188H81.9312C84.0484 80.7188 85.6751 78.8434 85.3758 76.747L82.4636 56.3629L42.4121 51.9058Z" fill="#FFAB40"/>
    <path d="M80.1916 70.4842L85.3863 44.2198C85.5586 43.2978 84.8505 42.4453 83.9111 42.4453H38.2037C37.2904 42.4453 36.5893 43.2543 36.718 44.1572L40.1818 66.8012L80.1916 70.4842Z" fill="#FFAB40"/>
    <path d="M73.2326 57.2324L82.8167 58.8295L82.6827 57.8918L83.1385 55.5815L73.2326 57.2324ZM48.882 62.5125L39.2805 60.9137L39.7085 63.7129L39.6302 64.0556L48.882 62.5125Z" fill="#FB8C00"/>
    <path d="M35.6799 53.8047C31.2561 53.8047 27.0135 55.5621 23.8854 58.6901C20.7573 61.8182 19 66.0608 19 70.4846C19 74.9084 20.7573 79.151 23.8854 82.2791C27.0135 85.4071 31.2561 87.1645 35.6799 87.1645C40.1037 87.1645 44.3463 85.4071 47.4743 82.2791C50.6024 79.151 52.3598 74.9084 52.3598 70.4846C52.3598 66.0608 50.6024 61.8182 47.4743 58.6901C44.3463 55.5621 40.1037 53.8047 35.6799 53.8047Z" fill="#4CAF50"/>
    <path d="M44.0866 63.0073L33.308 73.7992L28.8595 69.3607L26.6144 71.6092L33.3114 78.2911L46.335 65.2541L44.0866 63.0073Z" fill="white"/>
</svg>