<svg width="105" height="91" viewBox="0 0 105 91" fill="none" xmlns="http://www.w3.org/2000/svg">
    <g clip-path="url(#clip0_2_326)">
        <path d="M29.5 41.4219C39.8553 41.4219 48.25 33.0272 48.25 22.6719C48.25 12.3166 39.8553 3.92188 29.5 3.92188C19.1447 3.92188 10.75 12.3166 10.75 22.6719C10.75 33.0272 19.1447 41.4219 29.5 41.4219Z" fill="#FDB52A"/>
        <path d="M29.5 38.6094C38.302 38.6094 45.4375 31.4739 45.4375 22.6719C45.4375 13.8699 38.302 6.73438 29.5 6.73438C20.698 6.73438 13.5625 13.8699 13.5625 22.6719C13.5625 31.4739 20.698 38.6094 29.5 38.6094Z" fill="#FDB52A"/>
        <path d="M34.4219 25.8144C34.4219 20.9947 27.3062 21.936 27.3062 19.0888C27.3062 17.6028 28.9778 17.5241 29.5 17.5241C30.7563 17.5241 31.9684 17.8606 32.8928 18.2947C33.1844 18.4316 33.5191 18.2291 33.5191 17.9075V16.505C33.5191 16.0344 33.3419 15.756 33.0597 15.6453C32.4259 15.3997 31.5166 15.2188 30.1703 15.1747V13.6316C30.1703 13.4469 30.0203 13.2969 29.8356 13.2969H29.1662C28.9816 13.2969 28.8316 13.4469 28.8316 13.6316V15.2C26.7428 15.4025 24.5781 16.581 24.5781 19.3213C24.5781 24.3172 31.6938 23.3263 31.6938 25.9578C31.6938 26.7847 31.165 27.4972 29.5 27.4972C27.8256 27.4972 26.2872 26.9122 25.4359 26.4772C25.1491 26.331 24.8116 26.5428 24.8116 26.8653V28.4619C24.8116 28.7685 24.9953 29.0403 25.2784 29.1594C26.2872 29.5878 27.6409 29.9122 28.8306 30.0069V31.7132C28.8306 31.8978 28.9806 32.0478 29.1653 32.0478H29.8347C30.0194 32.0478 30.1694 31.8978 30.1694 31.7132V30.0116C33.2922 29.751 34.4219 27.6594 34.4219 25.8144Z" fill="white"/>
        <path d="M58.7212 14.7196L22.6049 50.8359C19.3801 54.0607 19.3801 59.2893 22.6049 62.5141L47.8052 87.7144C51.03 90.9392 56.2585 90.9392 59.4834 87.7144L95.5997 51.5981C97.1363 50.0614 98.0009 47.9758 98.0009 45.804V20.5136C98.0009 16.0062 94.313 12.3184 89.8057 12.3184H64.5173C62.3435 12.3184 60.2599 13.1809 58.7212 14.7196ZM85.708 28.7088C83.4544 28.7088 81.6104 26.8649 81.6104 24.6112C81.6104 22.3575 83.4544 20.5136 85.708 20.5136C87.9617 20.5136 89.8057 22.3575 89.8057 24.6112C89.8057 26.8649 87.9617 28.7088 85.708 28.7088Z" fill="#FF5634"/>
        <path d="M75.6711 51.3911L42.169 58.4636L38.7168 55.0114L72.1902 47.9082L75.6711 51.3911ZM50.5732 46.8633C49.1309 45.4209 48.424 43.8003 48.4589 42.0035C48.4937 40.2067 49.2825 38.5349 50.8273 36.9901C52.5155 35.3019 54.3246 34.4311 56.2525 34.3799C58.1804 34.3287 59.9281 35.0847 61.4954 36.65C62.9951 38.1497 63.7183 39.7683 63.6692 41.5077C63.618 43.2492 62.78 44.9292 61.1553 46.5539C59.4876 48.2216 57.6949 49.0801 55.7813 49.1272C53.8636 49.1743 52.1283 48.4204 50.5732 46.8633ZM52.9212 69.7832C51.4788 68.3409 50.7699 66.7223 50.8068 64.9255C50.8396 63.1287 51.6304 61.4569 53.1752 59.908C54.8634 58.2218 56.6725 57.3511 58.6004 57.2999C60.5284 57.2487 62.276 58.0047 63.8433 59.5699C65.3512 61.0799 66.0847 62.6964 66.0355 64.4215C65.9884 66.1487 65.1546 67.8225 63.5299 69.4431C61.8621 71.1129 60.0653 71.9755 58.1395 72.0328C56.2136 72.0902 54.4782 71.3383 52.9212 69.7832ZM58.92 39.0553C57.5433 37.6785 55.896 37.9469 53.9824 39.8625C52.1713 41.6736 51.9213 43.2348 53.2326 44.5461C54.5725 45.8839 56.1849 45.6114 58.0698 43.7265C59.9096 41.8847 60.1944 40.3276 58.92 39.0553ZM61.227 61.9322C59.8584 60.5636 58.2173 60.8402 56.3037 62.7517C54.4926 64.5629 54.2529 66.1323 55.5805 67.4619C56.9204 68.8019 58.5328 68.5294 60.4177 66.6424C61.2967 65.7655 61.7945 64.905 61.9174 64.0671C62.0404 63.2291 61.8109 62.5161 61.227 61.9322Z" fill="white"/>
    </g>
        <defs>
        <clipPath id="clip0_2_326">
            <rect width="105" height="90" fill="white" transform="translate(0 0.171875)"/>
        </clipPath>
    </defs>
</svg>