<svg width="105" height="91" viewBox="0 0 105 91" fill="none" xmlns="http://www.w3.org/2000/svg">
    <g clip-path="url(#clip0_2_346)">
        <path d="M5 27.6719H100V75.1719H5V27.6719Z" fill="#EDEDED"/>
        <path d="M5 75.1719H100V80.1719C100 80.8286 99.871 81.4788 99.6198 82.0855C99.3686 82.6922 99.0003 83.2435 98.5359 83.7078C98.0716 84.1722 97.5203 84.5405 96.9136 84.7917C96.3069 85.0429 95.6567 85.1721 95 85.1719H10C9.34334 85.1721 8.69308 85.0429 8.08637 84.7917C7.47966 84.5405 6.92839 84.1722 6.46406 83.7078C5.99973 83.2435 5.63144 82.6922 5.38023 82.0855C5.12903 81.4788 4.99982 80.8286 5 80.1719V75.1719Z" fill="#CACACA"/>
        <path d="M60.5 45.1719C60.5 44.0673 61.3954 43.1719 62.5 43.1719H85.5C86.6046 43.1719 87.5 44.0673 87.5 45.1719V83.1719C87.5 84.2765 86.6046 85.1719 85.5 85.1719H62.5C61.3954 85.1719 60.5 84.2765 60.5 83.1719V45.1719Z" fill="#656565"/>
        <path d="M48 42.6719H17C15.8954 42.6719 15 43.5673 15 44.6719V65.6719C15 66.7765 15.8954 67.6719 17 67.6719H48C49.1046 67.6719 50 66.7765 50 65.6719V44.6719C50 43.5673 49.1046 42.6719 48 42.6719Z" fill="#929292"/>
        <path d="M97.5 20.1719H7.5L1.89184e-07 27.6719V30.1719C-0.000180467 30.8286 0.129025 31.4788 0.380234 32.0855C0.631444 32.6922 0.999734 33.2435 1.46406 33.7078C1.92839 34.1722 2.47966 34.5405 3.08637 34.7917C3.69308 35.0429 4.34334 35.1721 5 35.1719H100C100.657 35.1721 101.307 35.0429 101.914 34.7917C102.52 34.5405 103.072 34.1722 103.536 33.7078C104 33.2435 104.369 32.6922 104.62 32.0855C104.871 31.4788 105 30.8286 105 30.1719V27.6719L97.5 20.1719Z" fill="#E13F1F"/>
        <path d="M105 27.6719H0L4.575 7.12187C4.69751 6.56967 5.00443 6.07567 5.44522 5.72122C5.88601 5.36677 6.43438 5.17303 7 5.17188H98C98.5656 5.17303 99.114 5.36677 99.5548 5.72122C99.9956 6.07567 100.302 6.56967 100.425 7.12187L105 27.6719Z" fill="#FF5634"/>
        <path d="M87.5 75.1719H60.5V85.1719H87.5V75.1719Z" fill="#656565"/>
    </g>
        <defs>
        <clipPath id="clip0_2_346">
            <rect width="105" height="90" fill="white" transform="translate(0 0.171875)"/>
        </clipPath>
    </defs>
</svg>