<svg width="24" height="28" viewBox="0 0 24 28" fill="none" xmlns="http://www.w3.org/2000/svg">
<path d="M23.2268 11.5733L12.9468 1.06666C12.8228 0.941688 12.6753 0.842496 12.5129 0.774804C12.3504 0.707113 12.1761 0.672262 12.0001 0.672262C11.8241 0.672262 11.6498 0.707113 11.4873 0.774804C11.3248 0.842496 11.1774 0.941688 11.0534 1.06666L0.773426 11.5867C0.524675 11.8374 0.328219 12.1351 0.195463 12.4624C0.0627081 12.7897 -0.00370074 13.1401 9.27839e-05 13.4933V24.6667C-0.000940315 25.3492 0.25979 26.0062 0.728592 26.5023C1.19739 26.9983 1.83857 27.2958 2.52009 27.3333H6.66676V15.3333C6.66676 14.9797 6.80724 14.6406 7.05728 14.3905C7.30733 14.1405 7.64647 14 8.00009 14H16.0001C16.3537 14 16.6929 14.1405 16.9429 14.3905C17.193 14.6406 17.3334 14.9797 17.3334 15.3333V27.3333H21.4801C22.1616 27.2958 22.8028 26.9983 23.2716 26.5023C23.7404 26.0062 24.0011 25.3492 24.0001 24.6667V13.4933C24.0012 12.7772 23.7239 12.0888 23.2268 11.5733Z" fill="#231F20"/>
</svg>