<svg width="20" height="26" viewBox="0 0 20 26" fill="none" xmlns="http://www.w3.org/2000/svg">
<path d="M9.99994 0.5C7.36501 0.499868 4.83651 1.5397 2.96399 3.39349C1.09148 5.24728 0.0262883 7.7652 -6.10352e-05 10.4C-6.10352e-05 17.25 8.81244 24.875 9.18744 25.2C9.41386 25.3937 9.702 25.5001 9.99994 25.5001C10.2979 25.5001 10.586 25.3937 10.8124 25.2C11.2499 24.875 19.9999 17.25 19.9999 10.4C19.9736 7.7652 18.9084 5.24728 17.0359 3.39349C15.1634 1.5397 12.6349 0.499868 9.99994 0.5ZM9.99994 22.5625C7.91244 20.575 2.49994 15.0625 2.49994 10.4C2.49994 8.41088 3.29012 6.50322 4.69664 5.0967C6.10316 3.69018 8.01082 2.9 9.99994 2.9C11.9891 2.9 13.8967 3.69018 15.3032 5.0967C16.7098 6.50322 17.4999 8.41088 17.4999 10.4C17.4999 15.025 12.0874 20.575 9.99994 22.5625Z" fill="#231F20"/>
<path d="M10 5.5C9.13471 5.5 8.28885 5.75659 7.56938 6.23732C6.84992 6.71805 6.28916 7.40133 5.95803 8.20076C5.6269 9.00019 5.54026 9.87985 5.70907 10.7285C5.87788 11.5772 6.29456 12.3567 6.90641 12.9686C7.51827 13.5804 8.29782 13.9971 9.14648 14.1659C9.99515 14.3347 10.8748 14.2481 11.6742 13.917C12.4737 13.5858 13.157 13.0251 13.6377 12.3056C14.1184 11.5862 14.375 10.7403 14.375 9.875C14.375 8.71468 13.9141 7.60188 13.0936 6.78141C12.2731 5.96094 11.1603 5.5 10 5.5ZM10 11.75C9.62916 11.75 9.26665 11.64 8.95831 11.434C8.64997 11.228 8.40964 10.9351 8.26773 10.5925C8.12581 10.2499 8.08868 9.87292 8.16103 9.50921C8.23338 9.14549 8.41195 8.8114 8.67418 8.54917C8.9364 8.28695 9.27049 8.10838 9.63421 8.03603C9.99792 7.96368 10.3749 8.00081 10.7175 8.14273C11.0601 8.28464 11.353 8.52496 11.559 8.83331C11.765 9.14165 11.875 9.50416 11.875 9.875C11.875 10.3723 11.6775 10.8492 11.3258 11.2008C10.9742 11.5525 10.4973 11.75 10 11.75Z" fill="#231F20"/>
</svg>