<svg width="27" height="24" viewBox="0 0 27 24" fill="none" xmlns="http://www.w3.org/2000/svg">
<path d="M9.33327 10.6667C10.3881 10.6667 11.4193 10.3539 12.2963 9.76784C13.1734 9.18181 13.857 8.34885 14.2606 7.37431C14.6643 6.39978 14.7699 5.32742 14.5641 4.29285C14.3583 3.25829 13.8504 2.30798 13.1045 1.5621C12.3586 0.816219 11.4083 0.308269 10.3738 0.102481C9.33919 -0.103307 8.26683 0.00231083 7.29229 0.405978C6.31775 0.809646 5.4848 1.49323 4.89877 2.37029C4.31273 3.24736 3.99994 4.2785 3.99994 5.33334C3.99994 6.74782 4.56184 8.10438 5.56204 9.10457C6.56223 10.1048 7.91878 10.6667 9.33327 10.6667Z" fill="#231F20"/>
<path d="M19.9999 13.3333C20.7911 13.3333 21.5644 13.0987 22.2222 12.6592C22.88 12.2197 23.3927 11.595 23.6955 10.8641C23.9982 10.1332 24.0774 9.3289 23.9231 8.55298C23.7687 7.77705 23.3878 7.06432 22.8284 6.50491C22.269 5.9455 21.5562 5.56454 20.7803 5.4102C20.0044 5.25586 19.2001 5.33507 18.4692 5.63782C17.7383 5.94057 17.1136 6.45326 16.6741 7.11106C16.2345 7.76885 15.9999 8.54221 15.9999 9.33334C15.9999 10.3942 16.4214 11.4116 17.1715 12.1618C17.9217 12.9119 18.9391 13.3333 19.9999 13.3333Z" fill="#231F20"/>
<path d="M25.3332 22.6667C25.6868 22.6667 26.026 22.5262 26.276 22.2761C26.5261 22.0261 26.6665 21.6869 26.6665 21.3333C26.6655 20.0872 26.3152 18.8663 25.6554 17.8092C24.9956 16.752 24.0527 15.901 22.9337 15.3526C21.8147 14.8042 20.5644 14.5804 19.3247 14.7067C18.0849 14.8329 16.9054 15.304 15.9199 16.0667C14.6139 14.7658 12.952 13.8808 11.1436 13.5232C9.33533 13.1657 7.46164 13.3516 5.75885 14.0575C4.05606 14.7634 2.60043 15.9578 1.57553 17.4899C0.550637 19.022 0.00237152 20.8233 -0.00012207 22.6667C-0.00012207 23.0203 0.140354 23.3594 0.390402 23.6095C0.640451 23.8595 0.979589 24 1.33321 24H17.3332C17.6868 24 18.026 23.8595 18.276 23.6095C18.5261 23.3594 18.6665 23.0203 18.6665 22.6667" fill="#231F20"/>
</svg>